<mxfile host="65bd71144e">
    <diagram name="Page-1" id="13e1069c-82ec-6db2-03f1-153e76fe0fe0">
        <mxGraphModel dx="2474" dy="1418" grid="1" gridSize="10" guides="1" tooltips="1" connect="1" arrows="1" fold="1" page="0" pageScale="1" pageWidth="1100" pageHeight="850" background="#FFFFFF" math="0" shadow="0">
            <root>
                <mxCell id="0"/>
                <mxCell id="1" parent="0"/>
                <mxCell id="7baba1c4bc27f4b0-3" value="Message Gate" style="shape=umlLifeline;perimeter=lifelinePerimeter;whiteSpace=wrap;html=1;container=1;collapsible=0;recursiveResize=0;outlineConnect=0;rounded=1;shadow=0;comic=0;labelBackgroundColor=none;strokeWidth=1;fontFamily=Verdana;fontSize=12;align=center;" parent="1" vertex="1">
                    <mxGeometry x="400" y="460" width="142" height="900" as="geometry"/>
                </mxCell>
                <mxCell id="7baba1c4bc27f4b0-16" value="" style="html=1;points=[];perimeter=orthogonalPerimeter;rounded=0;shadow=0;comic=0;labelBackgroundColor=none;strokeWidth=1;fontFamily=Verdana;fontSize=12;align=center;" parent="7baba1c4bc27f4b0-3" vertex="1">
                    <mxGeometry x="67" y="100" width="10" height="190" as="geometry"/>
                </mxCell>
                <mxCell id="i878nNDyU3FJ_8GmklUZ-9" value="" style="shape=requiredInterface;html=1;verticalLabelPosition=bottom;sketch=0;" parent="7baba1c4bc27f4b0-3" vertex="1">
                    <mxGeometry x="77" y="100" width="30" height="50" as="geometry"/>
                </mxCell>
                <mxCell id="i878nNDyU3FJ_8GmklUZ-12" value="" style="shape=requiredInterface;html=1;verticalLabelPosition=bottom;sketch=0;" parent="7baba1c4bc27f4b0-3" vertex="1">
                    <mxGeometry x="77" y="160" width="30" height="50" as="geometry"/>
                </mxCell>
                <mxCell id="i878nNDyU3FJ_8GmklUZ-17" value="Agent 객체 조회" style="text;html=1;align=left;verticalAlign=middle;resizable=0;points=[];autosize=1;strokeColor=none;fillColor=none;" parent="7baba1c4bc27f4b0-3" vertex="1">
                    <mxGeometry x="110" y="170" width="110" height="30" as="geometry"/>
                </mxCell>
                <mxCell id="i878nNDyU3FJ_8GmklUZ-18" value="" style="shape=requiredInterface;html=1;verticalLabelPosition=bottom;sketch=0;" parent="7baba1c4bc27f4b0-3" vertex="1">
                    <mxGeometry x="77" y="220" width="30" height="50" as="geometry"/>
                </mxCell>
                <mxCell id="i878nNDyU3FJ_8GmklUZ-22" value="" style="shape=requiredInterface;html=1;verticalLabelPosition=bottom;sketch=0;" parent="7baba1c4bc27f4b0-3" vertex="1">
                    <mxGeometry x="77" y="365" width="30" height="50" as="geometry"/>
                </mxCell>
                <mxCell id="i878nNDyU3FJ_8GmklUZ-60" value="" style="html=1;points=[];perimeter=orthogonalPerimeter;rounded=0;shadow=0;comic=0;labelBackgroundColor=none;strokeWidth=1;fontFamily=Verdana;fontSize=12;align=center;" parent="7baba1c4bc27f4b0-3" vertex="1">
                    <mxGeometry x="67" y="350" width="10" height="86" as="geometry"/>
                </mxCell>
                <mxCell id="i878nNDyU3FJ_8GmklUZ-26" value="메시지 상태 응답" style="html=1;verticalAlign=bottom;endArrow=open;dashed=1;endSize=8;labelBackgroundColor=none;fontFamily=Verdana;fontSize=12;edgeStyle=elbowEdgeStyle;elbow=vertical;exitX=-0.06;exitY=0.8;exitDx=0;exitDy=0;exitPerimeter=0;entryX=1.051;entryY=0.8;entryDx=0;entryDy=0;entryPerimeter=0;" parent="7baba1c4bc27f4b0-3" edge="1">
                    <mxGeometry relative="1" as="geometry">
                        <mxPoint x="77.00000000000023" y="486" as="targetPoint"/>
                        <Array as="points">
                            <mxPoint x="294.49" y="486"/>
                            <mxPoint x="324.49" y="486"/>
                        </Array>
                        <mxPoint x="333.8900000000001" y="486" as="sourcePoint"/>
                    </mxGeometry>
                </mxCell>
                <mxCell id="i878nNDyU3FJ_8GmklUZ-63" value="" style="html=1;points=[];perimeter=orthogonalPerimeter;rounded=0;shadow=0;comic=0;labelBackgroundColor=none;strokeWidth=1;fontFamily=Verdana;fontSize=12;align=center;" parent="7baba1c4bc27f4b0-3" vertex="1">
                    <mxGeometry x="67" y="485" width="10" height="385" as="geometry"/>
                </mxCell>
                <mxCell id="7baba1c4bc27f4b0-5" value="Agent DB" style="shape=umlLifeline;perimeter=lifelinePerimeter;whiteSpace=wrap;html=1;container=1;collapsible=0;recursiveResize=0;outlineConnect=0;rounded=1;shadow=0;comic=0;labelBackgroundColor=none;strokeWidth=1;fontFamily=Verdana;fontSize=12;align=center;" parent="1" vertex="1">
                    <mxGeometry x="690" y="460" width="100" height="910" as="geometry"/>
                </mxCell>
                <mxCell id="7baba1c4bc27f4b0-19" value="" style="html=1;points=[];perimeter=orthogonalPerimeter;rounded=0;shadow=0;comic=0;labelBackgroundColor=none;strokeWidth=1;fontFamily=Verdana;fontSize=12;align=center;" parent="7baba1c4bc27f4b0-5" vertex="1">
                    <mxGeometry x="45" y="436" width="10" height="50" as="geometry"/>
                </mxCell>
                <mxCell id="i878nNDyU3FJ_8GmklUZ-62" value="" style="html=1;points=[];perimeter=orthogonalPerimeter;rounded=0;shadow=0;comic=0;labelBackgroundColor=none;strokeWidth=1;fontFamily=Verdana;fontSize=12;align=center;" parent="7baba1c4bc27f4b0-5" vertex="1">
                    <mxGeometry x="45" y="290" width="10" height="60" as="geometry"/>
                </mxCell>
                <mxCell id="7baba1c4bc27f4b0-8" value="서비스" style="shape=umlLifeline;perimeter=lifelinePerimeter;whiteSpace=wrap;html=1;container=1;collapsible=0;recursiveResize=0;outlineConnect=0;rounded=1;shadow=0;comic=0;labelBackgroundColor=none;strokeWidth=1;fontFamily=Verdana;fontSize=12;align=center;" parent="1" vertex="1">
                    <mxGeometry x="140" y="460" width="110" height="900" as="geometry"/>
                </mxCell>
                <mxCell id="28" value="&lt;span style=&quot;font-size: 14px;&quot;&gt;&lt;b&gt;opt&lt;/b&gt;&lt;/span&gt;" style="text;html=1;align=left;verticalAlign=middle;resizable=0;points=[];autosize=1;strokeColor=none;fillColor=none;" parent="7baba1c4bc27f4b0-8" vertex="1">
                    <mxGeometry x="170" y="519" width="50" height="30" as="geometry"/>
                </mxCell>
                <mxCell id="32" value="&lt;span style=&quot;font-size: 14px;&quot;&gt;&lt;b&gt;opt&lt;/b&gt;&lt;/span&gt;" style="text;html=1;align=left;verticalAlign=middle;resizable=0;points=[];autosize=1;strokeColor=none;fillColor=none;" parent="7baba1c4bc27f4b0-8" vertex="1">
                    <mxGeometry x="172" y="680" width="50" height="30" as="geometry"/>
                </mxCell>
                <mxCell id="i878nNDyU3FJ_8GmklUZ-11" value="서비스의 Default Agent 확인" style="text;html=1;align=left;verticalAlign=middle;resizable=0;points=[];autosize=1;strokeColor=none;fillColor=none;" parent="1" vertex="1">
                    <mxGeometry x="511" y="570" width="170" height="30" as="geometry"/>
                </mxCell>
                <mxCell id="i878nNDyU3FJ_8GmklUZ-23" value="발송 상태 확인 Schedule ( delay 120초 )" style="text;html=1;align=left;verticalAlign=middle;resizable=0;points=[];autosize=1;strokeColor=none;fillColor=none;" parent="1" vertex="1">
                    <mxGeometry x="510" y="835" width="240" height="30" as="geometry"/>
                </mxCell>
                <mxCell id="i878nNDyU3FJ_8GmklUZ-24" value="발송 메시지 상태 조회" style="html=1;verticalAlign=bottom;endArrow=block;labelBackgroundColor=none;fontFamily=Verdana;fontSize=12;edgeStyle=elbowEdgeStyle;elbow=vertical;entryX=-0.048;entryY=0.454;entryDx=0;entryDy=0;entryPerimeter=0;" parent="1" edge="1">
                    <mxGeometry relative="1" as="geometry">
                        <mxPoint x="477" y="895.31" as="sourcePoint"/>
                        <mxPoint x="735" y="895.14" as="targetPoint"/>
                    </mxGeometry>
                </mxCell>
                <mxCell id="i878nNDyU3FJ_8GmklUZ-27" value="" style="shape=requiredInterface;html=1;verticalLabelPosition=bottom;sketch=0;" parent="1" vertex="1">
                    <mxGeometry x="477" y="1040" width="30" height="50" as="geometry"/>
                </mxCell>
                <mxCell id="i878nNDyU3FJ_8GmklUZ-28" value="Message 상태 Update" style="text;html=1;align=left;verticalAlign=middle;resizable=0;points=[];autosize=1;strokeColor=none;fillColor=none;" parent="1" vertex="1">
                    <mxGeometry x="510" y="1050" width="140" height="30" as="geometry"/>
                </mxCell>
                <mxCell id="i878nNDyU3FJ_8GmklUZ-29" value="Message Params 저장" style="text;html=1;align=left;verticalAlign=middle;resizable=0;points=[];autosize=1;strokeColor=none;fillColor=none;" parent="1" vertex="1">
                    <mxGeometry x="511" y="690" width="140" height="30" as="geometry"/>
                </mxCell>
                <mxCell id="i878nNDyU3FJ_8GmklUZ-31" value="Message Gate" style="shape=umlLifeline;perimeter=lifelinePerimeter;whiteSpace=wrap;html=1;container=1;collapsible=0;recursiveResize=0;outlineConnect=0;rounded=1;shadow=0;comic=0;labelBackgroundColor=none;strokeWidth=1;fontFamily=Verdana;fontSize=12;align=center;" parent="1" vertex="1">
                    <mxGeometry x="1284" y="463" width="124" height="737" as="geometry"/>
                </mxCell>
                <mxCell id="i878nNDyU3FJ_8GmklUZ-32" value="" style="html=1;points=[];perimeter=orthogonalPerimeter;rounded=0;shadow=0;comic=0;labelBackgroundColor=none;strokeWidth=1;fontFamily=Verdana;fontSize=12;align=center;" parent="i878nNDyU3FJ_8GmklUZ-31" vertex="1">
                    <mxGeometry x="57" y="80" width="10" height="430" as="geometry"/>
                </mxCell>
                <mxCell id="i878nNDyU3FJ_8GmklUZ-33" value="" style="shape=requiredInterface;html=1;verticalLabelPosition=bottom;sketch=0;" parent="i878nNDyU3FJ_8GmklUZ-31" vertex="1">
                    <mxGeometry x="67" y="100" width="30" height="50" as="geometry"/>
                </mxCell>
                <mxCell id="i878nNDyU3FJ_8GmklUZ-34" value="" style="shape=requiredInterface;html=1;verticalLabelPosition=bottom;sketch=0;" parent="i878nNDyU3FJ_8GmklUZ-31" vertex="1">
                    <mxGeometry x="67" y="160" width="30" height="50" as="geometry"/>
                </mxCell>
                <mxCell id="i878nNDyU3FJ_8GmklUZ-35" value="Agent 객체 조회" style="text;html=1;align=left;verticalAlign=middle;resizable=0;points=[];autosize=1;strokeColor=none;fillColor=none;" parent="i878nNDyU3FJ_8GmklUZ-31" vertex="1">
                    <mxGeometry x="100" y="170" width="110" height="30" as="geometry"/>
                </mxCell>
                <mxCell id="i878nNDyU3FJ_8GmklUZ-37" value="Message 발송 상태 조회" style="html=1;verticalAlign=bottom;endArrow=block;labelBackgroundColor=none;fontFamily=Verdana;fontSize=12;edgeStyle=elbowEdgeStyle;elbow=vertical;" parent="i878nNDyU3FJ_8GmklUZ-31" edge="1">
                    <mxGeometry x="-0.0025" relative="1" as="geometry">
                        <mxPoint x="-210.33333333333326" y="80" as="sourcePoint"/>
                        <mxPoint x="57" y="80" as="targetPoint"/>
                        <Array as="points">
                            <mxPoint x="57" y="80"/>
                        </Array>
                        <mxPoint as="offset"/>
                    </mxGeometry>
                </mxCell>
                <mxCell id="52" value="" style="html=1;points=[];perimeter=orthogonalPerimeter;rounded=0;shadow=0;comic=0;labelBackgroundColor=none;strokeWidth=1;fontFamily=Verdana;fontSize=12;align=center;" vertex="1" parent="i878nNDyU3FJ_8GmklUZ-31">
                    <mxGeometry x="57" y="570" width="10" height="40" as="geometry"/>
                </mxCell>
                <mxCell id="i878nNDyU3FJ_8GmklUZ-39" value="Agent DB" style="shape=umlLifeline;perimeter=lifelinePerimeter;whiteSpace=wrap;html=1;container=1;collapsible=0;recursiveResize=0;outlineConnect=0;rounded=1;shadow=0;comic=0;labelBackgroundColor=none;strokeWidth=1;fontFamily=Verdana;fontSize=12;align=center;" parent="1" vertex="1">
                    <mxGeometry x="1564" y="463" width="100" height="737" as="geometry"/>
                </mxCell>
                <mxCell id="i878nNDyU3FJ_8GmklUZ-40" value="" style="html=1;points=[];perimeter=orthogonalPerimeter;rounded=0;shadow=0;comic=0;labelBackgroundColor=none;strokeWidth=1;fontFamily=Verdana;fontSize=12;align=center;" parent="i878nNDyU3FJ_8GmklUZ-39" vertex="1">
                    <mxGeometry x="45" y="510" width="10" height="60" as="geometry"/>
                </mxCell>
                <mxCell id="i878nNDyU3FJ_8GmklUZ-41" value="서비스" style="shape=umlLifeline;perimeter=lifelinePerimeter;whiteSpace=wrap;html=1;container=1;collapsible=0;recursiveResize=0;outlineConnect=0;rounded=1;shadow=0;comic=0;labelBackgroundColor=none;strokeWidth=1;fontFamily=Verdana;fontSize=12;align=center;" parent="1" vertex="1">
                    <mxGeometry x="1024" y="463" width="100" height="737" as="geometry"/>
                </mxCell>
                <mxCell id="i878nNDyU3FJ_8GmklUZ-42" value="" style="html=1;points=[];perimeter=orthogonalPerimeter;rounded=0;shadow=0;comic=0;labelBackgroundColor=none;strokeWidth=1;fontFamily=Verdana;fontSize=12;align=center;" parent="i878nNDyU3FJ_8GmklUZ-41" vertex="1">
                    <mxGeometry x="45" y="50" width="10" height="30" as="geometry"/>
                </mxCell>
                <mxCell id="i878nNDyU3FJ_8GmklUZ-67" value="" style="html=1;points=[];perimeter=orthogonalPerimeter;rounded=0;shadow=0;comic=0;labelBackgroundColor=none;strokeWidth=1;fontFamily=Verdana;fontSize=12;align=center;" parent="i878nNDyU3FJ_8GmklUZ-41" vertex="1">
                    <mxGeometry x="45" y="377" width="10" height="30" as="geometry"/>
                </mxCell>
                <mxCell id="i878nNDyU3FJ_8GmklUZ-71" value="" style="html=1;points=[];perimeter=orthogonalPerimeter;rounded=0;shadow=0;comic=0;labelBackgroundColor=none;strokeWidth=1;fontFamily=Verdana;fontSize=12;align=center;" parent="i878nNDyU3FJ_8GmklUZ-41" vertex="1">
                    <mxGeometry x="45" y="610" width="10" height="30" as="geometry"/>
                </mxCell>
                <mxCell id="i878nNDyU3FJ_8GmklUZ-43" value="서비스의 Default Agent 확인" style="text;html=1;align=left;verticalAlign=middle;resizable=0;points=[];autosize=1;strokeColor=none;fillColor=none;" parent="1" vertex="1">
                    <mxGeometry x="1383" y="570" width="170" height="30" as="geometry"/>
                </mxCell>
                <mxCell id="i878nNDyU3FJ_8GmklUZ-46" value="Message 발송 상태 응답" style="html=1;verticalAlign=bottom;endArrow=open;dashed=1;endSize=8;labelBackgroundColor=none;fontFamily=Verdana;fontSize=12;edgeStyle=elbowEdgeStyle;elbow=vertical;exitX=-0.06;exitY=0.8;exitDx=0;exitDy=0;exitPerimeter=0;entryX=1.051;entryY=0.8;entryDx=0;entryDy=0;entryPerimeter=0;" parent="1" edge="1">
                    <mxGeometry relative="1" as="geometry">
                        <mxPoint x="1351.5100000000002" y="1033" as="targetPoint"/>
                        <Array as="points">
                            <mxPoint x="1569" y="1033"/>
                            <mxPoint x="1599" y="1033"/>
                        </Array>
                        <mxPoint x="1608.4" y="1033" as="sourcePoint"/>
                    </mxGeometry>
                </mxCell>
                <mxCell id="i878nNDyU3FJ_8GmklUZ-50" value="Message 발송 상태 확인 요청" style="html=1;verticalAlign=bottom;endArrow=block;labelBackgroundColor=none;fontFamily=Verdana;fontSize=12;edgeStyle=elbowEdgeStyle;elbow=vertical;entryX=0.026;entryY=0.462;entryDx=0;entryDy=0;entryPerimeter=0;" parent="1" edge="1">
                    <mxGeometry relative="1" as="geometry">
                        <mxPoint x="1351" y="973" as="sourcePoint"/>
                        <mxPoint x="1609.26" y="974.25" as="targetPoint"/>
                    </mxGeometry>
                </mxCell>
                <mxCell id="i878nNDyU3FJ_8GmklUZ-51" value="" style="shape=requiredInterface;html=1;verticalLabelPosition=bottom;sketch=0;" parent="1" vertex="1">
                    <mxGeometry x="1350" y="753" width="30" height="50" as="geometry"/>
                </mxCell>
                <mxCell id="i878nNDyU3FJ_8GmklUZ-52" value="Message 발송 상태 확인" style="text;html=1;align=left;verticalAlign=middle;resizable=0;points=[];autosize=1;strokeColor=none;fillColor=none;" parent="1" vertex="1">
                    <mxGeometry x="1383" y="763" width="150" height="30" as="geometry"/>
                </mxCell>
                <mxCell id="i878nNDyU3FJ_8GmklUZ-53" value="Message 발송 상태 응답" style="html=1;verticalAlign=bottom;endArrow=open;dashed=1;endSize=8;labelBackgroundColor=none;fontFamily=Verdana;fontSize=12;edgeStyle=elbowEdgeStyle;elbow=vertical;exitX=-0.06;exitY=0.8;exitDx=0;exitDy=0;exitPerimeter=0;entryX=1.051;entryY=0.8;entryDx=0;entryDy=0;entryPerimeter=0;" parent="1" edge="1">
                    <mxGeometry relative="1" as="geometry">
                        <mxPoint x="1082.0000000000002" y="1073" as="targetPoint"/>
                        <Array as="points">
                            <mxPoint x="1299.49" y="1073"/>
                            <mxPoint x="1329.49" y="1073"/>
                        </Array>
                        <mxPoint x="1338.89" y="1073" as="sourcePoint"/>
                    </mxGeometry>
                </mxCell>
                <mxCell id="i878nNDyU3FJ_8GmklUZ-54" value="Message 발송 상태 응답" style="html=1;verticalAlign=bottom;endArrow=open;dashed=1;endSize=8;labelBackgroundColor=none;fontFamily=Verdana;fontSize=12;edgeStyle=elbowEdgeStyle;elbow=vertical;exitX=-0.06;exitY=0.8;exitDx=0;exitDy=0;exitPerimeter=0;entryX=1.051;entryY=0.8;entryDx=0;entryDy=0;entryPerimeter=0;" parent="1" edge="1">
                    <mxGeometry relative="1" as="geometry">
                        <mxPoint x="1082.0000000000002" y="842.5799999999999" as="targetPoint"/>
                        <Array as="points">
                            <mxPoint x="1299.49" y="842.5799999999999"/>
                            <mxPoint x="1329.49" y="842.5799999999999"/>
                        </Array>
                        <mxPoint x="1338.89" y="842.5799999999999" as="sourcePoint"/>
                    </mxGeometry>
                </mxCell>
                <mxCell id="i878nNDyU3FJ_8GmklUZ-59" value="메시지 발송 요청" style="html=1;verticalAlign=bottom;endArrow=block;entryX=0;entryY=0;labelBackgroundColor=none;fontFamily=Verdana;fontSize=12;edgeStyle=elbowEdgeStyle;elbow=vertical;" parent="1" edge="1">
                    <mxGeometry relative="1" as="geometry">
                        <mxPoint x="472" y="750.5" as="sourcePoint"/>
                        <mxPoint x="736" y="750.61" as="targetPoint"/>
                    </mxGeometry>
                </mxCell>
                <mxCell id="i878nNDyU3FJ_8GmklUZ-99" value="Message Gate" style="shape=umlLifeline;perimeter=lifelinePerimeter;whiteSpace=wrap;html=1;container=1;collapsible=0;recursiveResize=0;outlineConnect=0;rounded=1;shadow=0;comic=0;labelBackgroundColor=none;strokeWidth=1;fontFamily=Verdana;fontSize=12;align=center;" parent="1" vertex="1">
                    <mxGeometry x="2090" y="460" width="124" height="420" as="geometry"/>
                </mxCell>
                <mxCell id="i878nNDyU3FJ_8GmklUZ-100" value="" style="html=1;points=[];perimeter=orthogonalPerimeter;rounded=0;shadow=0;comic=0;labelBackgroundColor=none;strokeWidth=1;fontFamily=Verdana;fontSize=12;align=center;" parent="i878nNDyU3FJ_8GmklUZ-99" vertex="1">
                    <mxGeometry x="57" y="100" width="10" height="210" as="geometry"/>
                </mxCell>
                <mxCell id="i878nNDyU3FJ_8GmklUZ-101" value="" style="shape=requiredInterface;html=1;verticalLabelPosition=bottom;sketch=0;" parent="i878nNDyU3FJ_8GmklUZ-99" vertex="1">
                    <mxGeometry x="67" y="118" width="30" height="50" as="geometry"/>
                </mxCell>
                <mxCell id="i878nNDyU3FJ_8GmklUZ-102" value="" style="shape=requiredInterface;html=1;verticalLabelPosition=bottom;sketch=0;" parent="i878nNDyU3FJ_8GmklUZ-99" vertex="1">
                    <mxGeometry x="67" y="178" width="30" height="50" as="geometry"/>
                </mxCell>
                <mxCell id="i878nNDyU3FJ_8GmklUZ-103" value="Agent 객체 조회" style="text;html=1;align=left;verticalAlign=middle;resizable=0;points=[];autosize=1;strokeColor=none;fillColor=none;" parent="i878nNDyU3FJ_8GmklUZ-99" vertex="1">
                    <mxGeometry x="100" y="188" width="110" height="30" as="geometry"/>
                </mxCell>
                <mxCell id="i878nNDyU3FJ_8GmklUZ-105" value="Message 발송 내역 조회" style="html=1;verticalAlign=bottom;endArrow=block;labelBackgroundColor=none;fontFamily=Verdana;fontSize=12;edgeStyle=elbowEdgeStyle;elbow=vertical;" parent="i878nNDyU3FJ_8GmklUZ-99" source="i878nNDyU3FJ_8GmklUZ-114" edge="1">
                    <mxGeometry relative="1" as="geometry">
                        <mxPoint x="-197.7325581395349" y="100" as="sourcePoint"/>
                        <mxPoint x="57" y="100" as="targetPoint"/>
                        <Array as="points">
                            <mxPoint x="57" y="100"/>
                        </Array>
                    </mxGeometry>
                </mxCell>
                <mxCell id="i878nNDyU3FJ_8GmklUZ-114" value="서비스" style="shape=umlLifeline;perimeter=lifelinePerimeter;whiteSpace=wrap;html=1;container=1;collapsible=0;recursiveResize=0;outlineConnect=0;rounded=1;shadow=0;comic=0;labelBackgroundColor=none;strokeWidth=1;fontFamily=Verdana;fontSize=12;align=center;" parent="1" vertex="1">
                    <mxGeometry x="1830" y="460" width="100" height="420" as="geometry"/>
                </mxCell>
                <mxCell id="i878nNDyU3FJ_8GmklUZ-115" value="" style="html=1;points=[];perimeter=orthogonalPerimeter;rounded=0;shadow=0;comic=0;labelBackgroundColor=none;strokeWidth=1;fontFamily=Verdana;fontSize=12;align=center;" parent="i878nNDyU3FJ_8GmklUZ-114" vertex="1">
                    <mxGeometry x="45" y="70" width="10" height="30" as="geometry"/>
                </mxCell>
                <mxCell id="i878nNDyU3FJ_8GmklUZ-127" value="" style="html=1;points=[];perimeter=orthogonalPerimeter;rounded=0;shadow=0;comic=0;labelBackgroundColor=none;strokeWidth=1;fontFamily=Verdana;fontSize=12;align=center;" parent="i878nNDyU3FJ_8GmklUZ-114" vertex="1">
                    <mxGeometry x="45" y="310" width="10" height="30" as="geometry"/>
                </mxCell>
                <mxCell id="i878nNDyU3FJ_8GmklUZ-116" value="서비스의 Default Agent 확인" style="text;html=1;align=left;verticalAlign=middle;resizable=0;points=[];autosize=1;strokeColor=none;fillColor=none;" parent="1" vertex="1">
                    <mxGeometry x="2191" y="588" width="170" height="30" as="geometry"/>
                </mxCell>
                <mxCell id="i878nNDyU3FJ_8GmklUZ-124" value="" style="shape=requiredInterface;html=1;verticalLabelPosition=bottom;sketch=0;" parent="1" vertex="1">
                    <mxGeometry x="2157" y="698" width="30" height="50" as="geometry"/>
                </mxCell>
                <mxCell id="i878nNDyU3FJ_8GmklUZ-125" value="Message 발송 내역 조회" style="text;html=1;align=left;verticalAlign=middle;resizable=0;points=[];autosize=1;strokeColor=none;fillColor=none;" parent="1" vertex="1">
                    <mxGeometry x="2190" y="708" width="150" height="30" as="geometry"/>
                </mxCell>
                <mxCell id="i878nNDyU3FJ_8GmklUZ-126" value="Message 발송 내역 응답" style="html=1;verticalAlign=bottom;endArrow=open;dashed=1;endSize=8;labelBackgroundColor=none;fontFamily=Verdana;fontSize=12;edgeStyle=elbowEdgeStyle;elbow=vertical;entryX=0.971;entryY=0.027;entryDx=0;entryDy=0;entryPerimeter=0;" parent="1" target="i878nNDyU3FJ_8GmklUZ-127" edge="1">
                    <mxGeometry relative="1" as="geometry">
                        <mxPoint x="1890" y="770" as="targetPoint"/>
                        <Array as="points">
                            <mxPoint x="2095" y="770"/>
                            <mxPoint x="2125" y="770"/>
                        </Array>
                        <mxPoint x="2150" y="770" as="sourcePoint"/>
                    </mxGeometry>
                </mxCell>
                <mxCell id="i878nNDyU3FJ_8GmklUZ-128" value="메시지 발송" style="text;html=1;align=center;verticalAlign=middle;resizable=0;points=[];autosize=1;strokeColor=none;fillColor=none;fontSize=18;fontStyle=1" parent="1" vertex="1">
                    <mxGeometry x="404" y="400" width="120" height="40" as="geometry"/>
                </mxCell>
                <mxCell id="i878nNDyU3FJ_8GmklUZ-129" value="메시지 발송 상태 조회" style="text;html=1;align=center;verticalAlign=middle;resizable=0;points=[];autosize=1;strokeColor=none;fillColor=none;fontSize=18;fontStyle=1" parent="1" vertex="1">
                    <mxGeometry x="1244" y="413" width="200" height="40" as="geometry"/>
                </mxCell>
                <mxCell id="i878nNDyU3FJ_8GmklUZ-130" value="메시지 발송 내역 조회" style="text;html=1;align=center;verticalAlign=middle;resizable=0;points=[];autosize=1;strokeColor=none;fillColor=none;fontSize=18;fontStyle=1" parent="1" vertex="1">
                    <mxGeometry x="1911" y="400" width="200" height="40" as="geometry"/>
                </mxCell>
                <mxCell id="19" value="" style="shape=ext;double=1;rounded=0;whiteSpace=wrap;html=1;fillColor=none;" parent="1" vertex="1">
                    <mxGeometry x="310" y="790" width="520" height="174" as="geometry"/>
                </mxCell>
                <mxCell id="7baba1c4bc27f4b0-11" value="Send Message" style="html=1;verticalAlign=bottom;endArrow=block;labelBackgroundColor=none;fontFamily=Verdana;fontSize=12;edgeStyle=elbowEdgeStyle;elbow=vertical;entryX=-0.21;entryY=-0.002;entryDx=0;entryDy=0;entryPerimeter=0;" parent="1" source="7baba1c4bc27f4b0-8" target="7baba1c4bc27f4b0-16" edge="1">
                    <mxGeometry relative="1" as="geometry">
                        <mxPoint x="202.2674418604651" y="560" as="sourcePoint"/>
                        <mxPoint x="457" y="560" as="targetPoint"/>
                        <Array as="points">
                            <mxPoint x="457" y="560"/>
                        </Array>
                    </mxGeometry>
                </mxCell>
                <mxCell id="20" value="&lt;font style=&quot;font-size: 14px;&quot;&gt;&lt;b&gt;loop&lt;/b&gt;&lt;/font&gt;" style="text;html=1;align=left;verticalAlign=middle;resizable=0;points=[];autosize=1;strokeColor=none;fillColor=none;" parent="1" vertex="1">
                    <mxGeometry x="310" y="760" width="50" height="30" as="geometry"/>
                </mxCell>
                <mxCell id="22" value="&lt;b style=&quot;text-align: left;&quot;&gt;발송상태 == 대기중&lt;br&gt;&lt;/b&gt;&lt;b style=&quot;text-align: left; font-size: 12px;&quot;&gt;&amp;amp;&amp;amp;&lt;br&gt;Status Check count &amp;lt; 4&lt;/b&gt;" style="text;html=1;align=center;verticalAlign=middle;resizable=0;points=[];autosize=1;strokeColor=none;fillColor=none;fontSize=12;" parent="1" vertex="1">
                    <mxGeometry x="310" y="793" width="160" height="60" as="geometry"/>
                </mxCell>
                <mxCell id="27" value="" style="shape=ext;double=1;rounded=0;whiteSpace=wrap;html=1;fillColor=none;" parent="1" vertex="1">
                    <mxGeometry x="310" y="1009" width="520" height="111" as="geometry"/>
                </mxCell>
                <mxCell id="30" value="&lt;b style=&quot;font-size: 12px;&quot;&gt;발송상태 != 대기중&lt;/b&gt;" style="text;html=1;align=left;verticalAlign=middle;resizable=0;points=[];autosize=1;strokeColor=none;fillColor=none;fontSize=12;" parent="1" vertex="1">
                    <mxGeometry x="320" y="1012" width="130" height="30" as="geometry"/>
                </mxCell>
                <mxCell id="31" value="" style="shape=ext;double=1;rounded=0;whiteSpace=wrap;html=1;fillColor=none;" parent="1" vertex="1">
                    <mxGeometry x="310" y="1170" width="520" height="120" as="geometry"/>
                </mxCell>
                <mxCell id="33" value="&lt;b&gt;Status Check count &amp;lt; 4&lt;/b&gt;" style="text;html=1;align=left;verticalAlign=middle;resizable=0;points=[];autosize=1;strokeColor=none;fillColor=none;fontSize=12;" parent="1" vertex="1">
                    <mxGeometry x="320" y="1170" width="160" height="30" as="geometry"/>
                </mxCell>
                <mxCell id="36" value="" style="shape=requiredInterface;html=1;verticalLabelPosition=bottom;sketch=0;" parent="1" vertex="1">
                    <mxGeometry x="477" y="1210" width="30" height="50" as="geometry"/>
                </mxCell>
                <mxCell id="37" value="Self Recover &amp;amp; Notification&lt;br&gt;or&amp;nbsp;&lt;br&gt;Notification" style="text;html=1;align=center;verticalAlign=middle;resizable=0;points=[];autosize=1;strokeColor=none;fillColor=none;" parent="1" vertex="1">
                    <mxGeometry x="505" y="1205" width="170" height="60" as="geometry"/>
                </mxCell>
                <mxCell id="38" value="&lt;span style=&quot;font-size: 14px;&quot;&gt;&lt;b&gt;opt&lt;/b&gt;&lt;/span&gt;" style="text;html=1;align=left;verticalAlign=middle;resizable=0;points=[];autosize=1;strokeColor=none;fillColor=none;" parent="1" vertex="1">
                    <mxGeometry x="990" y="910" width="50" height="30" as="geometry"/>
                </mxCell>
                <mxCell id="39" value="" style="shape=ext;double=1;rounded=0;whiteSpace=wrap;html=1;fillColor=none;" parent="1" vertex="1">
                    <mxGeometry x="990" y="940" width="668" height="180" as="geometry"/>
                </mxCell>
                <mxCell id="40" value="Message 발송 상태 : 대기 중" style="text;html=1;align=left;verticalAlign=middle;resizable=0;points=[];autosize=1;strokeColor=none;fillColor=none;fontSize=12;" parent="1" vertex="1">
                    <mxGeometry x="1002" y="943" width="180" height="30" as="geometry"/>
                </mxCell>
                <mxCell id="53" value="&lt;span style=&quot;font-size: 14px;&quot;&gt;&lt;b&gt;opt&lt;/b&gt;&lt;/span&gt;" style="text;html=1;align=left;verticalAlign=middle;resizable=0;points=[];autosize=1;strokeColor=none;fillColor=none;" vertex="1" parent="1">
                    <mxGeometry x="990" y="691.5" width="50" height="30" as="geometry"/>
                </mxCell>
                <mxCell id="54" value="" style="shape=ext;double=1;rounded=0;whiteSpace=wrap;html=1;fillColor=none;" vertex="1" parent="1">
                    <mxGeometry x="990" y="720" width="668" height="170" as="geometry"/>
                </mxCell>
                <mxCell id="55" value="Message 발송 상태 : 완료" style="text;html=1;align=left;verticalAlign=middle;resizable=0;points=[];autosize=1;strokeColor=none;fillColor=none;fontSize=12;" vertex="1" parent="1">
                    <mxGeometry x="1002" y="724.5" width="160" height="30" as="geometry"/>
                </mxCell>
                <mxCell id="56" value="Message Gate" style="shape=umlLifeline;perimeter=lifelinePerimeter;whiteSpace=wrap;html=1;container=1;collapsible=0;recursiveResize=0;outlineConnect=0;rounded=1;shadow=0;comic=0;labelBackgroundColor=none;strokeWidth=1;fontFamily=Verdana;fontSize=12;align=center;" vertex="1" parent="1">
                    <mxGeometry x="2660" y="460" width="124" height="540" as="geometry"/>
                </mxCell>
                <mxCell id="57" value="" style="html=1;points=[];perimeter=orthogonalPerimeter;rounded=0;shadow=0;comic=0;labelBackgroundColor=none;strokeWidth=1;fontFamily=Verdana;fontSize=12;align=center;" vertex="1" parent="56">
                    <mxGeometry x="57" y="100" width="10" height="190" as="geometry"/>
                </mxCell>
                <mxCell id="58" value="" style="shape=requiredInterface;html=1;verticalLabelPosition=bottom;sketch=0;" vertex="1" parent="56">
                    <mxGeometry x="67" y="118" width="30" height="50" as="geometry"/>
                </mxCell>
                <mxCell id="59" value="" style="shape=requiredInterface;html=1;verticalLabelPosition=bottom;sketch=0;" vertex="1" parent="56">
                    <mxGeometry x="67" y="178" width="30" height="50" as="geometry"/>
                </mxCell>
                <mxCell id="60" value="Agent 객체 조회" style="text;html=1;align=left;verticalAlign=middle;resizable=0;points=[];autosize=1;strokeColor=none;fillColor=none;" vertex="1" parent="56">
                    <mxGeometry x="100" y="188" width="110" height="30" as="geometry"/>
                </mxCell>
                <mxCell id="61" value="Message 발송 내역 조회" style="html=1;verticalAlign=bottom;endArrow=block;labelBackgroundColor=none;fontFamily=Verdana;fontSize=12;edgeStyle=elbowEdgeStyle;elbow=vertical;" edge="1" parent="56" source="62">
                    <mxGeometry relative="1" as="geometry">
                        <mxPoint x="-197.7325581395349" y="100" as="sourcePoint"/>
                        <mxPoint x="57" y="100" as="targetPoint"/>
                        <Array as="points">
                            <mxPoint x="57" y="100"/>
                        </Array>
                    </mxGeometry>
                </mxCell>
                <mxCell id="75" value="" style="html=1;points=[];perimeter=orthogonalPerimeter;rounded=0;shadow=0;comic=0;labelBackgroundColor=none;strokeWidth=1;fontFamily=Verdana;fontSize=12;align=center;" vertex="1" parent="56">
                    <mxGeometry x="57" y="350" width="10" height="40" as="geometry"/>
                </mxCell>
                <mxCell id="62" value="서비스" style="shape=umlLifeline;perimeter=lifelinePerimeter;whiteSpace=wrap;html=1;container=1;collapsible=0;recursiveResize=0;outlineConnect=0;rounded=1;shadow=0;comic=0;labelBackgroundColor=none;strokeWidth=1;fontFamily=Verdana;fontSize=12;align=center;" vertex="1" parent="1">
                    <mxGeometry x="2400" y="460" width="100" height="540" as="geometry"/>
                </mxCell>
                <mxCell id="63" value="" style="html=1;points=[];perimeter=orthogonalPerimeter;rounded=0;shadow=0;comic=0;labelBackgroundColor=none;strokeWidth=1;fontFamily=Verdana;fontSize=12;align=center;" vertex="1" parent="62">
                    <mxGeometry x="45" y="70" width="10" height="30" as="geometry"/>
                </mxCell>
                <mxCell id="64" value="" style="html=1;points=[];perimeter=orthogonalPerimeter;rounded=0;shadow=0;comic=0;labelBackgroundColor=none;strokeWidth=1;fontFamily=Verdana;fontSize=12;align=center;" vertex="1" parent="62">
                    <mxGeometry x="45" y="390" width="10" height="30" as="geometry"/>
                </mxCell>
                <mxCell id="65" value="서비스의 Default Agent 확인" style="text;html=1;align=left;verticalAlign=middle;resizable=0;points=[];autosize=1;strokeColor=none;fillColor=none;" vertex="1" parent="1">
                    <mxGeometry x="2761" y="588" width="170" height="30" as="geometry"/>
                </mxCell>
                <mxCell id="68" value="Message 발송 내역 응답" style="html=1;verticalAlign=bottom;endArrow=open;dashed=1;endSize=8;labelBackgroundColor=none;fontFamily=Verdana;fontSize=12;edgeStyle=elbowEdgeStyle;elbow=vertical;entryX=0.971;entryY=0.027;entryDx=0;entryDy=0;entryPerimeter=0;" edge="1" parent="1" target="64">
                    <mxGeometry relative="1" as="geometry">
                        <mxPoint x="2460" y="850" as="targetPoint"/>
                        <Array as="points">
                            <mxPoint x="2665" y="850"/>
                            <mxPoint x="2695" y="850"/>
                        </Array>
                        <mxPoint x="2720" y="850" as="sourcePoint"/>
                    </mxGeometry>
                </mxCell>
                <mxCell id="69" value="&amp;nbsp;상세 메시지 발송 내역 조회" style="text;html=1;align=center;verticalAlign=middle;resizable=0;points=[];autosize=1;strokeColor=none;fillColor=none;fontSize=18;fontStyle=1" vertex="1" parent="1">
                    <mxGeometry x="2600" y="400" width="250" height="40" as="geometry"/>
                </mxCell>
                <mxCell id="70" value="Agent DB" style="shape=umlLifeline;perimeter=lifelinePerimeter;whiteSpace=wrap;html=1;container=1;collapsible=0;recursiveResize=0;outlineConnect=0;rounded=1;shadow=0;comic=0;labelBackgroundColor=none;strokeWidth=1;fontFamily=Verdana;fontSize=12;align=center;" vertex="1" parent="1">
                    <mxGeometry x="2940" y="460" width="100" height="540" as="geometry"/>
                </mxCell>
                <mxCell id="71" value="" style="html=1;points=[];perimeter=orthogonalPerimeter;rounded=0;shadow=0;comic=0;labelBackgroundColor=none;strokeWidth=1;fontFamily=Verdana;fontSize=12;align=center;" vertex="1" parent="70">
                    <mxGeometry x="45" y="290" width="10" height="60" as="geometry"/>
                </mxCell>
                <mxCell id="72" value="Message 발송 내역 조회" style="html=1;verticalAlign=bottom;endArrow=block;labelBackgroundColor=none;fontFamily=Verdana;fontSize=12;edgeStyle=elbowEdgeStyle;elbow=vertical;exitX=0.782;exitY=0.999;exitDx=0;exitDy=0;exitPerimeter=0;" edge="1" parent="1">
                    <mxGeometry relative="1" as="geometry">
                        <mxPoint x="2724.8199999999997" y="749.81" as="sourcePoint"/>
                        <mxPoint x="2989.5" y="749.5" as="targetPoint"/>
                        <Array as="points">
                            <mxPoint x="2730" y="750"/>
                            <mxPoint x="2997.5" y="749.5"/>
                        </Array>
                    </mxGeometry>
                </mxCell>
                <mxCell id="73" value="Message 발송 내역 응답" style="html=1;verticalAlign=bottom;endArrow=open;dashed=1;endSize=8;labelBackgroundColor=none;fontFamily=Verdana;fontSize=12;edgeStyle=elbowEdgeStyle;elbow=vertical;entryX=0.954;entryY=-0.004;entryDx=0;entryDy=0;entryPerimeter=0;" edge="1" parent="1" target="75">
                    <mxGeometry relative="1" as="geometry">
                        <mxPoint x="2730" y="810" as="targetPoint"/>
                        <Array as="points">
                            <mxPoint x="2960.29" y="809.59"/>
                        </Array>
                        <mxPoint x="2985.2900000000004" y="809.59" as="sourcePoint"/>
                    </mxGeometry>
                </mxCell>
            </root>
        </mxGraphModel>
    </diagram>
</mxfile>